<?xml version="1.0" encoding="utf-8"?>
<!-- Generator: Adobe Illustrator 17.0.0, SVG Export Plug-In . SVG Version: 6.00 Build 0)  -->
<!DOCTYPE svg PUBLIC "-//W3C//DTD SVG 1.1//EN" "http://www.w3.org/Graphics/SVG/1.1/DTD/svg11.dtd">
<svg version="1.1" id="Layer_1" xmlns="http://www.w3.org/2000/svg" xmlns:xlink="http://www.w3.org/1999/xlink" x="0px" y="0px"
	 width="16px" height="16px" viewBox="-3 -0.169 16 16" enable-background="new -3 -0.169 16 16" xml:space="preserve">
<path fill="#3B4044" d="M6.184,11.272c0-0.587,0.067-1.048,0.201-1.384s0.417-0.67,0.848-1.002C8.025,8.37,8.684,7.73,9.21,6.967
	S10,5.373,10,4.475c0-1.378-0.451-2.469-1.352-3.271S6.504,0,4.921,0c-1.47,0-2.664,0.36-3.579,1.081
	c-0.916,0.721-1.363,1.76-1.341,3.117l0.021,0.064h3.011C3.04,3.661,3.226,3.205,3.59,2.894s0.807-0.466,1.331-0.466
	c0.636,0,1.125,0.184,1.469,0.552c0.343,0.368,0.514,0.877,0.514,1.527c0,0.587-0.15,1.117-0.451,1.591
	C6.152,6.571,5.752,7.013,5.249,7.423C4.393,8.08,3.823,8.639,3.537,9.098c-0.286,0.46-0.433,1.184-0.44,2.174L6.184,11.272
	L6.184,11.272z M6.205,13.011H3.088v2.651h3.117V13.011z"/>
</svg>
