<?xml version="1.0" encoding="utf-8"?>
<!-- Generator: Adobe Illustrator 17.0.0, SVG Export Plug-In . SVG Version: 6.00 Build 0)  -->
<!DOCTYPE svg PUBLIC "-//W3C//DTD SVG 1.1//EN" "http://www.w3.org/Graphics/SVG/1.1/DTD/svg11.dtd">
<svg version="1.1" id="Layer_1" xmlns="http://www.w3.org/2000/svg" xmlns:xlink="http://www.w3.org/1999/xlink" x="0px" y="0px"
	 width="16px" height="16px" viewBox="-1 -1 16 16" enable-background="new -1 -1 16 16" xml:space="preserve">
<path fill="#3B4044" d="M10.416,7l3.181-3.181c0.538-0.538,0.538-1.417,0-1.956l-1.46-1.46c-0.538-0.538-1.417-0.538-1.955,0
	L7.001,3.584L3.819,0.403c-0.538-0.538-1.417-0.538-1.956,0l-1.46,1.46c-0.538,0.538-0.538,1.417,0,1.956L3.584,7l-3.181,3.18
	c-0.538,0.538-0.538,1.417,0,1.956l1.46,1.46c0.538,0.538,1.417,0.538,1.956,0L7,10.415l3.181,3.181
	c0.538,0.538,1.417,0.538,1.955,0l1.46-1.46c0.538-0.538,0.538-1.417,0-1.956L10.416,7z"/>
</svg>
