<?xml version="1.0" encoding="utf-8"?>
<!-- Generator: Adobe Illustrator 17.0.0, SVG Export Plug-In . SVG Version: 6.00 Build 0)  -->
<!DOCTYPE svg PUBLIC "-//W3C//DTD SVG 1.1//EN" "http://www.w3.org/Graphics/SVG/1.1/DTD/svg11.dtd">
<svg version="1.1" id="Layer_1" xmlns="http://www.w3.org/2000/svg" xmlns:xlink="http://www.w3.org/1999/xlink" x="0px" y="0px"
	 width="110px" height="80.035px" viewBox="55 40.017 110 80.035" enable-background="new 55 40.017 110 80.035"
	 xml:space="preserve">
<g>
	<path fill="#A5A898" d="M108.046,97.509l9.085-5.012c2.188-1.207,4.966-3.985,6.173-6.173l5.012-9.085
		c1.207-2.188,0.404-2.99-1.783-1.783l-9.085,5.012c-2.188,1.207-4.966,3.985-6.173,6.173l-5.012,9.085
		C105.056,97.914,105.858,98.716,108.046,97.509z"/>
	<path fill="#A5A898" d="M160.658,51.369h-25.651l-1.848-8.64c-0.33-1.547-1.801-2.713-3.421-2.713H104.84
		c-1.62,0-3.09,1.166-3.42,2.712l-1.848,8.641H91.03v-5.982c0-1.94-1.599-3.519-3.564-3.519H71.308
		c-1.965,0-3.564,1.579-3.564,3.519v5.982h-8.402c-2.395,0-4.343,1.948-4.343,4.343v59.998c0,2.395,1.948,4.343,4.343,4.343h101.315
		c2.395,0,4.342-1.948,4.342-4.343V55.712C165,53.317,163.052,51.369,160.658,51.369z M160.639,55.712v9.893h-22.588l-2.113-9.877
		L160.639,55.712z M160.639,69.966v31.927h-21.652c3.378-4.518,5.381-10.121,5.381-16.183c0-5.87-1.883-11.305-5.069-15.745
		C139.298,69.966,160.639,69.966,160.639,69.966z M105.527,44.379l23.527,0.01l4.158,19.44c-4.473-3.263-9.975-5.195-15.922-5.195
		s-11.45,1.932-15.923,5.196L105.527,44.379z M117.289,62.994c12.526,0,22.717,10.191,22.717,22.717s-10.191,22.717-22.717,22.717
		S94.572,98.237,94.572,85.711S104.763,62.994,117.289,62.994z M95.592,101.893H59.361V69.966H95.28
		c-3.186,4.441-5.069,9.875-5.069,15.745C90.211,91.772,92.214,97.375,95.592,101.893z M71.379,45.504h16.017v5.866H71.379V45.504z
		 M59.342,55.731h39.297l-2.112,9.874H59.36L59.342,55.731z M59.361,115.709v-9.456h40.318c4.739,4.068,10.89,6.535,17.611,6.535
		c6.72,0,12.872-2.467,17.61-6.535h25.741l0.018,9.437L59.361,115.709z"/>
</g>
</svg>
